<svg xmlns="http://www.w3.org/2000/svg" width="1400" height="700" viewBox="0 0 1400 700" role="img" aria-label="Frustrated person at computer">
  <defs>
    <linearGradient id="bg" x1="0" y1="0" x2="1" y2="1">
      <stop offset="0%" stop-color="#eef6fb"/>
      <stop offset="100%" stop-color="#d8ebf6"/>
    </linearGradient>
  </defs>
  <rect width="1400" height="700" fill="url(#bg)"/>
  <rect x="90" y="80" width="1220" height="540" rx="24" fill="#ffffff" stroke="#0092BC" stroke-width="4"/>

  <rect x="760" y="205" width="430" height="250" rx="14" fill="#e5eef4" stroke="#4b5563" stroke-width="4"/>
  <rect x="790" y="235" width="370" height="170" rx="10" fill="#ffffff" stroke="#9ca3af" stroke-width="3"/>
  <line x1="820" y1="280" x2="1135" y2="280" stroke="#ef4444" stroke-width="10" stroke-linecap="round"/>
  <line x1="820" y1="320" x2="1085" y2="320" stroke="#ef4444" stroke-width="10" stroke-linecap="round"/>
  <line x1="820" y1="360" x2="1110" y2="360" stroke="#ef4444" stroke-width="10" stroke-linecap="round"/>
  <rect x="940" y="460" width="70" height="24" rx="8" fill="#4b5563"/>

  <ellipse cx="445" cy="490" rx="180" ry="50" fill="#d1d5db"/>
  <rect x="310" y="350" width="260" height="130" rx="45" fill="#1f2937"/>
  <circle cx="440" cy="285" r="78" fill="#f3c9a8"/>
  <path d="M365 275 Q440 210 515 275" fill="#111827"/>
  <circle cx="415" cy="290" r="5" fill="#111827"/>
  <circle cx="465" cy="290" r="5" fill="#111827"/>
  <path d="M408 325 Q440 305 472 325" stroke="#b91c1c" stroke-width="5" fill="none"/>

  <line x1="340" y1="385" x2="255" y2="325" stroke="#1f2937" stroke-width="20" stroke-linecap="round"/>
  <line x1="540" y1="385" x2="640" y2="310" stroke="#1f2937" stroke-width="20" stroke-linecap="round"/>

  <path d="M280 225 l-20 -45" stroke="#ef4444" stroke-width="8" stroke-linecap="round"/>
  <path d="M315 200 l-10 -50" stroke="#ef4444" stroke-width="8" stroke-linecap="round"/>
  <path d="M350 190 l8 -48" stroke="#ef4444" stroke-width="8" stroke-linecap="round"/>

  <text x="130" y="175" font-family="Calibri, Arial, sans-serif" font-size="48" fill="#0f172a">Formatting Chaos</text>
  <text x="130" y="225" font-family="Calibri, Arial, sans-serif" font-size="28" fill="#334155">The writer is blocked by document mechanics.</text>
</svg>
