<svg xmlns="http://www.w3.org/2000/svg" width="1000" height="1000" viewBox="0 0 1000 1000" role="img" aria-label="Happy person at computer">
  <defs>
    <linearGradient id="bg" x1="0" y1="0" x2="1" y2="1">
      <stop offset="0%" stop-color="#eefaf3"/>
      <stop offset="100%" stop-color="#d8f5e3"/>
    </linearGradient>
  </defs>
  <rect width="1000" height="1000" fill="url(#bg)"/>
  <rect x="70" y="70" width="860" height="860" rx="28" fill="#ffffff" stroke="#16a34a" stroke-width="4"/>

  <rect x="540" y="360" width="310" height="230" rx="16" fill="#e8fff0" stroke="#16a34a" stroke-width="4"/>
  <rect x="570" y="390" width="250" height="155" rx="10" fill="#ffffff" stroke="#86efac" stroke-width="3"/>
  <line x1="595" y1="430" x2="790" y2="430" stroke="#10b981" stroke-width="10" stroke-linecap="round"/>
  <line x1="595" y1="465" x2="760" y2="465" stroke="#10b981" stroke-width="10" stroke-linecap="round"/>
  <line x1="595" y1="500" x2="780" y2="500" stroke="#10b981" stroke-width="10" stroke-linecap="round"/>
  <rect x="650" y="600" width="95" height="30" rx="10" fill="#15803d"/>

  <ellipse cx="355" cy="650" rx="180" ry="55" fill="#d1d5db"/>
  <rect x="220" y="515" width="260" height="130" rx="45" fill="#14532d"/>
  <circle cx="350" cy="445" r="82" fill="#f3c9a8"/>
  <path d="M270 435 Q350 360 430 435" fill="#14532d"/>
  <circle cx="324" cy="452" r="5" fill="#111827"/>
  <circle cx="375" cy="452" r="5" fill="#111827"/>
  <path d="M315 490 Q350 520 390 490" stroke="#15803d" stroke-width="6" fill="none"/>

  <line x1="245" y1="555" x2="185" y2="500" stroke="#14532d" stroke-width="20" stroke-linecap="round"/>
  <line x1="455" y1="555" x2="530" y2="500" stroke="#14532d" stroke-width="20" stroke-linecap="round"/>

  <circle cx="150" cy="180" r="26" fill="#22c55e"/>
  <path d="M138 180 l10 10 l18 -20" stroke="#ffffff" stroke-width="7" fill="none" stroke-linecap="round" stroke-linejoin="round"/>

  <text x="120" y="275" font-family="Calibri, Arial, sans-serif" font-size="44" fill="#14532d">Smooth Workflow</text>
  <text x="120" y="320" font-family="Calibri, Arial, sans-serif" font-size="26" fill="#166534">Writing first, formatting automated.</text>
</svg>
